#!OML:ASF E:\motion texture\Top Level 1\Subject 1\Session 1\male.ASF
:FULLY-SPECIFIED
:DEGREES
483
root -8.27765 18.1017 5.85101 21.2811 -80.5599 -17.3259
lowerback -1.12606 0.190472 1.49123
upperback -2.84749 0.248832 1.96995
thorax -2.29149 0.0961411 1.18436
lowerneck -4.04129 -6.06891 -8.032
upperneck -16.9418 -7.26445 11.8921
head -3.57699 -3.90054 5.11546
rclavicle -1.28092e-014 4.77083e-015
rhumerus 12.2617 15.5398 -91.4113
rradius 100.551
rwrist -53.7717
rhand -13.6416 -61.0668
rfingers 7.12502
rthumb 12.4747 -629.326
lclavicle -1.28092e-014 4.77083e-015
lhumerus -40.1196 -23.302 111.172
lradius 82.5833
lwrist 44.8985
lhand -1.08924 46.7341
lfingers 7.12502
lthumb 24.5467 75.1806
rfemur -28.7659 -10.2329 18.3067
rtibia 40.4102
rfoot -4.55818 -17.2941
rtoes 5.93755
lfemur -9.58152 -3.4299 -18.8982
ltibia 16.2632
lfoot -8.67182 0.0586304
ltoes -4.98505
484
root -8.38291 18.1014 5.85415 20.9458 -80.6101 -16.8817
lowerback -1.07252 0.0350033 1.41034
upperback -2.83657 0.0431066 2.00541
thorax -2.3084 -0.00445403 1.26798
lowerneck -4.21881 -5.84748 -7.84523
upperneck -16.8284 -6.97639 11.7681
head -3.55601 -3.7598 5.03887
rclavicle -3.32592e-014 1.19271e-014
rhumerus 12.2558 14.9164 -91.3168
rradius 101.419
rwrist -53.6784
rhand -13.5838 -60.9605
rfingers 7.12502
rthumb 12.5304 -629.435
lclavicle -3.32592e-014 1.19271e-014
lhumerus -39.7906 -23.2581 111.275
lradius 81.7376
lwrist 45.0073
lhand -1.12682 46.6499
lfingers 7.12502
lthumb 24.5106 75.1013
rfemur -29.1507 -9.95489 17.939
rtibia 39.0784
rfoot -4.27767 -17.1931
rtoes 5.45035
lfemur -9.23744 -3.42094 -18.9745
ltibia 16.1552
lfoot -8.91128 0.103811
ltoes -4.94261
485
root -8.48892 18.1005 5.8569 20.6597 -80.6791 -16.4876
lowerback -1.02439 -0.117561 1.32969
upperback -2.82337 -0.159026 2.04333
thorax -2.31915 -0.103226 1.3542
lowerneck -4.39358 -5.6181 -7.66038
upperneck -16.7249 -6.67838 11.6452
head -3.5384 -3.61442 4.96354
rclavicle -9.24349e-015 -1.23246e-014
rhumerus 12.1472 14.3149 -91.2232
rradius 102.264
rwrist -53.6189
rhand -13.5412 -60.931
rfingers 7.12502
rthumb 12.5714 -629.467
lclavicle -9.24349e-015 -1.23246e-014
lhumerus -39.3885 -23.226 111.334
lradius 80.9622
lwrist 45.1364
lhand -1.20794 46.6243
lfingers 7.12502
lthumb 24.4329 75.0863
rfemur -29.5086 -9.66708 17.579
rtibia 37.7466
rfoot -3.95208 -17.1007
rtoes 4.97179
lfemur -8.89111 -3.40817 -19.0457
ltibia 16.0514
lfoot -9.15385 0.163011
ltoes -4.90522
486
root -8.59583 18.0988 5.85916 20.4205 -80.7641 -16.1408
lowerback -0.980428 -0.266871 1.24918
upperback -2.80942 -0.357036 2.08389
thorax -2.32604 -0.199932 1.44323
lowerneck -4.56341 -5.38147 -7.47856
upperneck -16.6308 -6.37132 11.5242
head -3.52418 -3.46481 4.88991
rclavicle -4.24778e-014 0
rhumerus 11.9331 13.7353 -91.1256
rradius 103.087
rwrist -53.5867
rhand -13.5094 -60.9604
rfingers 7.12502
rthumb 12.6022 -629.44
lclavicle -4.24778e-014 0
lhumerus -38.9158 -23.2084 111.353
lradius 80.2566
lwrist 45.286
lhand -1.34753 46.6558
lfingers 7.12502
lthumb 24.2991 75.1357
rfemur -29.8402 -9.37143 17.2291
rtibia 36.4225
rfoot -3.58227 -17.0225
rtoes 4.5208
lfemur -8.54364 -3.3933 -19.1109
ltibia 15.9536
lfoot -9.40061 0.235385
ltoes -4.8817
487
root -8.70356 18.0965 5.86099 20.2278 -80.8704 -15.8414
lowerback -0.940566 -0.411234 1.16884
upperback -2.79527 -0.548654 2.12559
thorax -2.32971 -0.293463 1.53342
lowerneck -4.72398 -5.13859 -7.29944
upperneck -16.5516 -6.05647 11.4061
head -3.51555 -3.31191 4.81854
rclavicle -2.18663e-014 1.74931e-014
rhumerus 11.6126 13.1807 -91.0231
rradius 103.884
rwrist -53.5796
rhand -13.5018 -60.9389
rfingers 7.12502
rthumb 12.6095 -629.462
lclavicle -2.18663e-014 1.74931e-014
lhumerus -38.377 -23.2046 111.33
lradius 79.6234
lwrist 45.4534
lhand -1.53839 46.7382
lfingers 7.12502
lthumb 24.1161 75.2425
rfemur -30.1494 -9.06742 16.8898
rtibia 35.1181
rfoot -3.17262 -16.9555
rtoes 4.07786
lfemur -8.19386 -3.37454 -19.1727
ltibia 15.861
lfoot -9.65196 0.324206
ltoes -4.87428
488
root -8.81227 18.0936 5.86229 20.0768 -80.993 -15.5852
lowerback -0.907766 -0.5518 1.08898
upperback -2.77788 -0.735506 2.16856
thorax -2.32538 -0.384629 1.62462
lowerneck -4.87834 -4.88962 -7.12433
upperneck -16.4858 -5.73373 11.2927
head -3.51144 -3.15561 4.74993
rclavicle -2.1183e-015 -1.19271e-014
rhumerus 11.1906 12.6535 -90.9115
rradius 104.657
rwrist -53.5923
rhand -13.5185 -60.9381
rfingers 7.12502
rthumb 12.5933 -629.461
lclavicle -2.1183e-015 -1.19271e-014
lhumerus -37.7658 -23.2155 111.264
lradius 79.0619
lwrist 45.6377
lhand -1.78985 46.8866
lfingers 7.12502
lthumb 23.8749 75.4227
rfemur -30.4339 -8.759 16.5636
rtibia 33.8396
rfoot -2.73008 -16.9025
rtoes 3.65439
lfemur -7.84109 -3.35383 -19.2297
ltibia 15.7743
lfoot -9.90699 0.42628
ltoes -4.88078
